<svg width="100" height="32" viewBox="0 0 100 32" fill="none" xmlns="http://www.w3.org/2000/svg">
<path fill-rule="evenodd" clip-rule="evenodd" d="M3.77877 21.7735C3.98398 20.4692 4.46671 19.0353 4.95035 17.5984C5.15062 17.0035 5.35154 16.4067 5.56489 15.7012C5.86708 14.7019 6.09652 13.757 6.21973 12.9222C6.32641 12.199 6.35493 11.5662 6.28253 11.0647C6.21718 10.6127 6.06041 10.2598 5.85008 9.95761C5.60913 9.61117 5.2924 9.30952 4.95538 9.00806C4.71826 8.79581 4.3891 8.51482 4.06021 8.23392C3.53928 7.78913 3.01642 7.3426 2.53132 6.87075C2.13333 6.48364 1.76687 6.08354 1.43543 5.65895C1.09621 5.22422 0.80023 4.77211 0.553428 4.29331C0.280391 3.76379 0.0585435 3.18618 0.0105542 2.62228C-0.0527004 1.87776 0.15635 1.1911 0.829115 0.670896C1.3644 0.256542 2.20618 0.00919142 3.30198 0.000141999C4.17054 -0.00698785 5.23755 0.129942 6.47166 0.449779C7.67962 0.762944 9.0501 1.24924 10.3688 1.79915C11.8014 2.39641 13.1934 3.07649 14.2658 3.69724C15.3313 4.31379 16.0928 4.87906 16.6501 5.39981C17.2473 5.95804 17.6215 6.47477 17.8822 6.95439C18.1726 7.48867 18.3293 7.98219 18.3488 8.61546C18.3657 9.17086 18.2691 9.79545 18.0563 10.6444C17.9868 10.9216 17.8736 11.332 17.7512 11.7761C17.3659 13.1744 16.8777 14.9457 16.8016 16.501C16.7556 17.4388 16.8587 18.3147 17.0909 19.0974C17.3198 19.8689 17.6763 20.5482 18.1399 21.1026C18.9789 22.1062 20.2461 22.7739 21.315 23.3369L21.7538 23.5714H21.7579C22.4073 23.9199 22.9572 24.2444 23.4302 24.5643C23.9239 24.8981 24.3474 25.236 24.7252 25.5987C25.1267 25.9845 25.475 26.4008 25.7104 26.8393C26.0022 27.3824 26.128 27.9556 26.0032 28.5497C25.8828 29.1224 25.5365 29.6523 25.0006 30.0953C24.5592 30.4599 23.9725 30.7768 23.2697 31.0119C22.6023 31.235 21.8326 31.3859 20.9181 31.4589C20.0436 31.5287 19.0171 31.5287 17.7964 31.4543C16.509 31.3757 15.0025 31.213 13.5296 30.967C12.239 30.7514 10.9717 30.4726 9.89243 30.1315C8.67907 29.7477 7.68327 29.2817 6.867 28.7468C6.01891 28.1909 5.36379 27.5601 4.86104 26.8689C4.3466 26.1618 3.99339 25.3927 3.80948 24.5315C3.63188 23.6986 3.61899 22.7886 3.77886 21.7734L3.77877 21.7735ZM26.9523 9.88101C28.9188 9.88101 30.2174 10.7618 31.0797 12.0684V12.0724C31.8608 13.2564 32.235 14.771 32.4208 16.2454V16.2494C32.5704 17.4383 32.5962 18.2724 32.3006 18.9417C31.9312 19.7775 31.2496 20.1861 30.0348 20.3414C29.5922 20.398 29.1181 20.4313 28.6436 20.4313C27.3085 20.4313 25.7778 20.1987 24.5058 19.5503C23.1145 18.841 22.0395 17.6654 21.803 15.8153C21.7704 15.56 21.7534 15.3144 21.7534 15.08C21.7534 13.6446 22.3353 12.3446 23.2761 11.4038C24.217 10.4629 25.5167 9.88092 26.9523 9.88092V9.88101Z" fill="white"/>
<path d="M41.5519 22.0485H53.1843L53.44 20.5329H44.0171L53.0017 10.489V9.08301H41.9719V10.5987H50.6094L41.5519 20.7155V22.0485Z" fill="white"/>
<path fill-rule="evenodd" clip-rule="evenodd" d="M64.2889 14.4511H56.0817V16.0035H64.2889V14.4511ZM56.0817 10.6158H64.0943V9.08167H56.0817V10.6158ZM56.0817 22.0486H64.496V20.4962H56.0817V22.0486Z" fill="white"/>
<path fill-rule="evenodd" clip-rule="evenodd" d="M67.8998 22.0485H72.2357C74.7559 22.0485 76.8929 20.8431 76.8929 18.2497C76.8929 16.259 75.4317 15.4189 74.2629 15.0903C75.2673 14.7979 76.3632 13.9579 76.3632 12.3324C76.3632 10.3236 74.9204 9.08154 72.1261 9.08154H67.8999V10.5609H71.7427C73.2586 10.5609 74.4456 10.9991 74.4456 12.4967C74.4456 13.757 73.5507 14.4327 71.6696 14.4327H67.8999V15.9121H71.6513C73.7333 15.9121 74.9569 16.6973 74.9569 18.2497C74.9569 20.0943 73.3498 20.5692 71.8339 20.5692H67.8999V22.0484L67.8998 22.0485Z" fill="white"/>
<path fill-rule="evenodd" clip-rule="evenodd" d="M82.911 16.4599C85.194 16.4599 85.9429 17.0626 85.9429 18.9803V19.4004C85.9429 20.4961 85.9064 21.4824 86.1072 22.0485H87.9701C87.824 21.5007 87.824 20.4048 87.824 19.4186V18.8524C87.824 16.5695 86.6549 15.9303 85.7967 15.6929C87.3856 15.2728 88.1709 14.1588 88.1709 12.5881C88.1709 10.2869 86.3812 9.08154 83.7329 9.08154H79.5651V10.5792H83.3311C85.2853 10.5792 86.2899 11.2914 86.2899 12.6977C86.2899 14.2501 85.2854 14.9623 83.2581 14.9623H79.5651V16.4599H82.911Z" fill="white"/>
<path fill-rule="evenodd" clip-rule="evenodd" d="M96.206 18.122L97.9411 22.0488H99.9501L94.1424 9.0816L92.3181 9.05884C92.3192 9.05518 95.1791 15.5951 95.6035 16.5514H91.4615L91.9508 18.1221H96.2059L96.206 18.122Z" fill="white"/>
<path d="M58.3902 28.4552V28.7328H56.243V25.6964H58.3251V25.974H56.564V27.0542H58.1343V27.3274H56.564V28.4552H58.3902ZM62.9724 25.6964V28.7328H62.7078L60.7558 26.269V28.7328H60.4347V25.6964H60.6994L62.6557 28.1602V25.6964H62.9723H62.9724ZM67.3896 27.2147H67.6977V28.3728C67.556 28.4972 67.3883 28.5927 67.1946 28.6591C67.0008 28.7257 66.7969 28.7589 66.583 28.7589C66.2793 28.7589 66.006 28.6925 65.763 28.5594C65.5202 28.4264 65.3293 28.2421 65.1904 28.0064C65.0517 27.7707 64.9823 27.5068 64.9823 27.2148C64.9823 26.9226 65.0517 26.6587 65.1904 26.4231C65.3293 26.1874 65.5202 26.0031 65.763 25.8701C66.006 25.737 66.2808 25.6705 66.5873 25.6705C66.8186 25.6705 67.0311 25.7075 67.2249 25.7812C67.4186 25.8549 67.5821 25.964 67.7151 26.1087L67.5156 26.3126C67.2756 26.0755 66.9704 25.9569 66.6002 25.9569C66.3544 25.9569 66.1326 26.0111 65.9344 26.1196C65.7363 26.2281 65.5809 26.3784 65.4681 26.5707C65.3553 26.763 65.299 26.9777 65.299 27.2149C65.299 27.452 65.3553 27.6659 65.4681 27.8567C65.5809 28.0476 65.7356 28.198 65.9322 28.3078C66.1288 28.4177 66.3501 28.4727 66.5958 28.4727C66.9083 28.4727 67.1728 28.3946 67.3896 28.2385V27.2148V27.2147ZM69.894 25.6964H70.2151V28.7328H69.894V25.6964ZM75.0315 25.6964V28.7328H74.7668L72.8148 26.269V28.7328H72.4938V25.6964H72.7584L74.7147 28.1602V25.6964H75.0314H75.0315ZM79.4574 28.4552V28.7328H77.3103V25.6964H79.3924V25.974H77.6312V27.0542H79.2015V27.3274H77.6312V28.4552H79.4574ZM83.6493 28.4552V28.7328H81.5021V25.6964H83.5842V25.974H81.823V27.0542H83.3933V27.3274H81.823V28.4552H83.6493ZM87.7673 28.7328L87.0733 27.7568C86.9952 27.7654 86.9144 27.7698 86.8304 27.7698H86.0149V28.7328H85.6939V25.6964H86.8304C87.2179 25.6964 87.5216 25.789 87.7413 25.974C87.9612 26.1591 88.071 26.4136 88.071 26.7375C88.071 26.9747 88.0111 27.1748 87.891 27.3383C87.771 27.5016 87.5996 27.6194 87.3771 27.6918L88.1187 28.7329H87.7674L87.7673 28.7328ZM86.8217 27.4966C87.1224 27.4966 87.3524 27.4301 87.5114 27.2971C87.6704 27.1641 87.7499 26.9775 87.7499 26.7375C87.7499 26.4917 87.6704 26.3031 87.5114 26.1714C87.3524 26.0398 87.1224 25.974 86.8217 25.974H86.0148V27.4966H86.8217ZM90.1199 25.6964H90.4409V28.7328H90.1199V25.6964ZM95.2573 25.6964V28.7328H94.9926L93.0406 26.269V28.7328H92.7196V25.6964H92.9842L94.9405 28.1602V25.6964H95.2572H95.2573ZM99.6745 27.2147H99.9825V28.3728C99.8409 28.4972 99.6731 28.5927 99.4794 28.6591C99.2856 28.7257 99.0817 28.7589 98.8678 28.7589C98.5642 28.7589 98.2908 28.6925 98.0479 28.5594C97.805 28.4264 97.6142 28.2421 97.4753 28.0064C97.3365 27.7707 97.2672 27.5068 97.2672 27.2148C97.2672 26.9226 97.3365 26.6587 97.4753 26.4231C97.6142 26.1874 97.805 26.0031 98.0479 25.8701C98.2908 25.737 98.5656 25.6705 98.8721 25.6705C99.1035 25.6705 99.316 25.7075 99.5098 25.7812C99.7035 25.8549 99.8669 25.964 99.9999 26.1087L99.8004 26.3126C99.5604 26.0755 99.2553 25.9569 98.8851 25.9569C98.6393 25.9569 98.4174 26.0111 98.2193 26.1196C98.0212 26.2281 97.8657 26.3784 97.753 26.5707C97.6402 26.763 97.5838 26.9777 97.5838 27.2149C97.5838 27.452 97.6402 27.6659 97.753 27.8567C97.8657 28.0476 98.0205 28.198 98.2171 28.3078C98.4137 28.4177 98.6349 28.4727 98.8807 28.4727C99.1931 28.4727 99.4577 28.3946 99.6745 28.2385V27.2148V27.2147Z" fill="white"/>
</svg>
